<?xml version="1.0" encoding="utf-8"?>
<svg xml:space="preserve" viewBox="0 0 100 100" y="0" x="0" xmlns="http://www.w3.org/2000/svg" id="圖層_1" version="1.1" style="height: 100%; width: 100%; background: none; shape-rendering: auto;" width="200px" height="200px"><g class="ldl-scale" style="transform-origin: 50% 50%; transform: rotate(0deg) scale(0.8, 0.8);"><g class="ldl-ani"><g class="ldl-layer"><g class="ldl-ani" style="transform-origin: 50px 50px; transform: rotate(0deg); animation: 1.11111s linear -0.968519s infinite normal forwards running tick-d79b2b69-b128-409c-91d0-7a7d2d0cc9d9;"><path stroke-miterlimit="10" stroke="#333" stroke-width="3.5" fill="#e0e0e0" d="M76.367 43.448H23.633v40.233a5.267 5.267 0 0 0 5.267 5.267h42.2a5.267 5.267 0 0 0 5.267-5.267V43.448z" style="fill: rgb(224, 224, 224); stroke: rgb(51, 51, 51);"></path></g></g><g class="ldl-layer"><g class="ldl-ani" style="transform-origin: 50px 50px; transform: rotate(0deg); animation: 1.11111s linear -0.981481s infinite normal forwards running tick-d79b2b69-b128-409c-91d0-7a7d2d0cc9d9;"><path stroke-miterlimit="10" stroke-width="3.5" stroke="#000" opacity=".1" d="M67.867 43.448v15.25H23.633v6.969h44.235v12.54c0 5.932-4.809 10.741-10.741 10.741H71.1a5.267 5.267 0 0 0 5.267-5.267V43.448h-8.5z" style=""></path></g></g><g class="ldl-layer"><g class="ldl-ani" style="transform-origin: 50px 50px; transform: rotate(0deg); animation: 1.11111s linear -0.994444s infinite normal forwards running tick-d79b2b69-b128-409c-91d0-7a7d2d0cc9d9;"><path stroke-miterlimit="10" stroke-width="3.5" stroke="#333" fill="#e15b64" d="M24.68 11.434c-.087.029-.174.06-.26.093-1.641.626-3.224 5.227-4.183 6.886-1.024 1.772 3.906 6.538 11.012 10.646 6.77 3.913 14.065 4.186 15.359 3.124l3.022-5.228c.615-1.064-3.539-7.173-10.645-11.28-3.814-2.206-9.65-5.804-14.305-4.241z" style="fill: rgb(225, 91, 100); stroke: rgb(51, 51, 51);"></path></g></g><g class="ldl-layer"><g class="ldl-ani" style="transform-origin: 50px 50px; transform: rotate(0deg); animation: 1.11111s linear -1.00741s infinite normal forwards running tick-d79b2b69-b128-409c-91d0-7a7d2d0cc9d9;"><path fill="#333" d="M35.007 22.057c4.29 2.48 6.648 6.427 6.648 6.427s-4.597-.073-8.887-2.553-7.266-5.357-6.648-6.427c.618-1.069 4.597.073 8.887 2.553z" style="fill: rgb(51, 51, 51);"></path></g></g><g class="ldl-layer"><g class="ldl-ani" style="transform-origin: 50px 50px; transform: rotate(0deg); animation: 1.11111s linear -1.02037s infinite normal forwards running tick-d79b2b69-b128-409c-91d0-7a7d2d0cc9d9;"><path stroke-miterlimit="10" stroke-width="3.5" stroke="#333" fill="#e15b64" d="M75.32 11.434c.087.029.174.06.26.093 1.641.626 3.224 5.227 4.183 6.886 1.024 1.772-3.906 6.538-11.012 10.646-6.77 3.913-14.065 4.186-15.359 3.124l-3.022-5.228c-.615-1.064 3.539-7.173 10.645-11.28 3.814-2.206 9.65-5.804 14.305-4.241z" style="fill: rgb(225, 91, 100); stroke: rgb(51, 51, 51);"></path></g></g><g class="ldl-layer"><g class="ldl-ani" style="transform-origin: 50px 50px; transform: rotate(0deg); animation: 1.11111s linear -1.03333s infinite normal forwards running tick-d79b2b69-b128-409c-91d0-7a7d2d0cc9d9;"><path fill="#333" d="M64.993 22.057c-4.29 2.48-6.648 6.427-6.648 6.427s4.597-.073 8.887-2.553 7.266-5.357 6.648-6.427-4.597.073-8.887 2.553z" style="fill: rgb(51, 51, 51);"></path></g></g><g class="ldl-layer"><g class="ldl-ani" style="transform-origin: 50px 50px; transform: rotate(0deg); animation: 1.11111s linear -1.0463s infinite normal forwards running tick-d79b2b69-b128-409c-91d0-7a7d2d0cc9d9;"><path stroke-width="3.5" stroke="#333" fill="#fff" stroke-miterlimit="10" d="M80.425 58.448h-60.85a3.425 3.425 0 0 1-3.425-3.425V35.874a3.425 3.425 0 0 1 3.425-3.425h60.851a3.425 3.425 0 0 1 3.425 3.425v19.149a3.425 3.425 0 0 1-3.426 3.425z" style="fill: rgb(255, 255, 255); stroke: rgb(51, 51, 51);"></path></g></g><g class="ldl-layer"><g class="ldl-ani" style="transform-origin: 50px 50px; transform: rotate(0deg); animation: 1.11111s linear -1.05926s infinite normal forwards running tick-d79b2b69-b128-409c-91d0-7a7d2d0cc9d9;"><path stroke-miterlimit="10" stroke-width="3.5" stroke="#000" opacity=".1" d="M80.425 32.448H77.35v17.934a8.066 8.066 0 0 1-8.066 8.066h11.141a3.425 3.425 0 0 0 3.425-3.425V35.874a3.425 3.425 0 0 0-3.425-3.426z" style=""></path></g></g><g class="ldl-layer"><g class="ldl-ani" style="transform-origin: 50px 50px; transform: rotate(0deg); animation: 1.11111s linear -1.07222s infinite normal forwards running tick-d79b2b69-b128-409c-91d0-7a7d2d0cc9d9;"><path d="M41.5 32.448h17v56.5h-17z" stroke-miterlimit="10" stroke-width="3.5" stroke="#333" fill="#e15b64" style="fill: rgb(225, 91, 100); stroke: rgb(51, 51, 51);"></path></g></g><g class="ldl-layer"><g class="ldl-ani" style="transform-origin: 50px 50px; transform: rotate(0deg); animation: 1.11111s linear -1.08519s infinite normal forwards running tick-d79b2b69-b128-409c-91d0-7a7d2d0cc9d9;"><path d="M65.962 51.583h10" stroke-miterlimit="10" stroke="#333" stroke-width="3.5" stroke-linecap="round" fill="none" style="stroke: rgb(51, 51, 51);"></path></g></g><g class="ldl-layer"><g class="ldl-ani" style="transform-origin: 50px 50px; transform: rotate(0deg); animation: 1.11111s linear -1.09815s infinite normal forwards running tick-d79b2b69-b128-409c-91d0-7a7d2d0cc9d9;"><path d="M50 71v7" stroke-miterlimit="10" stroke="#333" stroke-width="3.5" stroke-linecap="round" fill="none" style="stroke: rgb(51, 51, 51);"></path></g></g><g class="ldl-layer"><g class="ldl-ani" style="transform-origin: 50px 50px; transform: rotate(0deg); animation: 1.11111s linear -1.11111s infinite normal forwards running tick-d79b2b69-b128-409c-91d0-7a7d2d0cc9d9;"><path d="M50 41v19.698" stroke-miterlimit="10" stroke="#333" stroke-width="3.5" stroke-linecap="round" fill="none" style="stroke: rgb(51, 51, 51);"></path></g></g><metadata xmlns:d="https://loading.io/stock/">
<d:name>gift</d:name>
<d:tags>gift,present,giveaway,free,birthday,box,ribbon,souvenir,handsel,award,bonus,benefit</d:tags>
<d:license>by</d:license>
<d:slug>pz39ku</d:slug>
</metadata></g></g><style id="tick-d79b2b69-b128-409c-91d0-7a7d2d0cc9d9" data-anikit="">@keyframes tick-d79b2b69-b128-409c-91d0-7a7d2d0cc9d9
{
  0% {
    animation-timing-function: cubic-bezier(0.1858,0.2841,0.5834,1.4615);
    transform: rotate(0deg);
  }
  31% {
    animation-timing-function: cubic-bezier(0.0467,0.1102,0.4803,1.4719);
    transform: rotate(6.093deg);
  }
  41% {
    animation-timing-function: cubic-bezier(0.0469,0.1108,0.4775,1.4732);
    transform: rotate(-4.266deg);
  }
  51% {
    animation-timing-function: cubic-bezier(0.0478,0.1131,0.4723,1.4819);
    transform: rotate(2.988deg);
  }
  61% {
    animation-timing-function: cubic-bezier(0.0506,0.1192,0.4639,1.4818);
    transform: rotate(-2.088deg);
  }
  71% {
    animation-timing-function: cubic-bezier(0.0581,0.1374,0.457,1.4901);
    transform: rotate(1.467deg);
  }
  81% {
    animation-timing-function: cubic-bezier(0.0765,0.1813,0.4542,1.4923);
    transform: rotate(-1.026deg);
  }
  91% {
    animation-timing-function: cubic-bezier(0.1747,0.3181,0.341,0.878);
    transform: rotate(0.72deg);
  }
  100% {
    transform: rotate(-0.738deg);
  }
}</style><!-- [ldio] generated by https://loading.io/ --></svg>